<mxfile host="app.diagrams.net" agent="Mozilla/5.0 (Windows NT 10.0; Win64; x64) AppleWebKit/537.36 (KHTML, like Gecko) Chrome/134.0.0.0 Safari/537.36" version="26.2.8">
  <diagram name="Page-1" id="LxIIQWF2vTjfxQzoj53m">
    <mxGraphModel dx="1190" dy="648" grid="1" gridSize="10" guides="1" tooltips="1" connect="1" arrows="1" fold="1" page="1" pageScale="1" pageWidth="827" pageHeight="1169" math="0" shadow="0">
      <root>
        <mxCell id="0" />
        <mxCell id="1" parent="0" />
        <mxCell id="mIVXYmdaby6aAC75n7bV-1" value="" style="rounded=0;whiteSpace=wrap;html=1;fillColor=none;dashed=1;strokeColor=#6F6F6F;" vertex="1" parent="1">
          <mxGeometry x="10" y="210" width="150" height="440" as="geometry" />
        </mxCell>
        <mxCell id="mIVXYmdaby6aAC75n7bV-2" value="&lt;font style=&quot;font-size: 24px;&quot;&gt;Sources&lt;/font&gt;" style="rounded=0;whiteSpace=wrap;html=1;strokeColor=none;" vertex="1" parent="1">
          <mxGeometry x="35" y="190" width="90" height="30" as="geometry" />
        </mxCell>
        <mxCell id="mIVXYmdaby6aAC75n7bV-3" value="" style="rounded=0;whiteSpace=wrap;html=1;fillColor=none;dashed=1;strokeColor=#6F6F6F;" vertex="1" parent="1">
          <mxGeometry x="170" y="210" width="440" height="440" as="geometry" />
        </mxCell>
        <mxCell id="mIVXYmdaby6aAC75n7bV-4" value="" style="rounded=0;whiteSpace=wrap;html=1;fillColor=none;dashed=1;strokeColor=#6F6F6F;" vertex="1" parent="1">
          <mxGeometry x="630" y="210" width="140" height="440" as="geometry" />
        </mxCell>
        <mxCell id="mIVXYmdaby6aAC75n7bV-5" value="&lt;font style=&quot;font-size: 24px;&quot;&gt;Data Warehouse&lt;/font&gt;" style="rounded=0;whiteSpace=wrap;html=1;strokeColor=none;" vertex="1" parent="1">
          <mxGeometry x="295" y="190" width="190" height="30" as="geometry" />
        </mxCell>
        <mxCell id="mIVXYmdaby6aAC75n7bV-6" value="&lt;span style=&quot;font-size: 24px;&quot;&gt;Consume&lt;/span&gt;" style="rounded=0;whiteSpace=wrap;html=1;strokeColor=none;" vertex="1" parent="1">
          <mxGeometry x="655" y="190" width="90" height="30" as="geometry" />
        </mxCell>
        <mxCell id="mIVXYmdaby6aAC75n7bV-7" value="" style="rounded=1;whiteSpace=wrap;html=1;fillColor=none;strokeColor=#CCCC00;" vertex="1" parent="1">
          <mxGeometry x="180" y="270" width="130" height="360" as="geometry" />
        </mxCell>
        <mxCell id="mIVXYmdaby6aAC75n7bV-8" value="" style="rounded=1;whiteSpace=wrap;html=1;fillColor=none;strokeColor=#6F6F6F;" vertex="1" parent="1">
          <mxGeometry x="327.5" y="270" width="125" height="360" as="geometry" />
        </mxCell>
        <mxCell id="mIVXYmdaby6aAC75n7bV-9" value="" style="rounded=1;whiteSpace=wrap;html=1;fillColor=none;strokeColor=#FF8000;" vertex="1" parent="1">
          <mxGeometry x="470" y="270" width="130" height="360" as="geometry" />
        </mxCell>
        <mxCell id="mIVXYmdaby6aAC75n7bV-11" value="&lt;font style=&quot;font-size: 20px;&quot;&gt;Silver Layer&lt;/font&gt;" style="rounded=0;whiteSpace=wrap;html=1;fillColor=#f5f5f5;strokeColor=#666666;gradientColor=#b3b3b3;" vertex="1" parent="1">
          <mxGeometry x="327.5" y="230" width="125" height="30" as="geometry" />
        </mxCell>
        <mxCell id="mIVXYmdaby6aAC75n7bV-12" value="&lt;font style=&quot;font-size: 20px;&quot;&gt;Bronze Layer&lt;/font&gt;" style="rounded=0;whiteSpace=wrap;html=1;fillColor=#fff2cc;strokeColor=#d6b656;gradientColor=#ffd966;" vertex="1" parent="1">
          <mxGeometry x="180" y="230" width="130" height="30" as="geometry" />
        </mxCell>
        <mxCell id="mIVXYmdaby6aAC75n7bV-13" value="&lt;font style=&quot;font-size: 20px;&quot;&gt;Gold Layer&lt;/font&gt;" style="rounded=0;whiteSpace=wrap;html=1;fillColor=#f8cecc;strokeColor=#b85450;gradientColor=#ea6b66;" vertex="1" parent="1">
          <mxGeometry x="470" y="230" width="120" height="30" as="geometry" />
        </mxCell>
        <mxCell id="mIVXYmdaby6aAC75n7bV-16" value="" style="image;aspect=fixed;html=1;points=[];align=center;fontSize=12;image=img/lib/azure2/general/Folder_Blank.svg;" vertex="1" parent="1">
          <mxGeometry x="45.5" y="280" width="69" height="56.00000000000001" as="geometry" />
        </mxCell>
        <mxCell id="mIVXYmdaby6aAC75n7bV-17" value="" style="image;aspect=fixed;html=1;points=[];align=center;fontSize=12;image=img/lib/azure2/general/Files.svg;" vertex="1" parent="1">
          <mxGeometry x="88.43" y="310" width="36.57" height="40" as="geometry" />
        </mxCell>
        <mxCell id="mIVXYmdaby6aAC75n7bV-19" value="" style="image;aspect=fixed;html=1;points=[];align=center;fontSize=12;image=img/lib/azure2/general/Folder_Blank.svg;" vertex="1" parent="1">
          <mxGeometry x="45.5" y="430" width="69" height="56.00000000000001" as="geometry" />
        </mxCell>
        <mxCell id="mIVXYmdaby6aAC75n7bV-18" value="" style="image;aspect=fixed;html=1;points=[];align=center;fontSize=12;image=img/lib/azure2/general/Files.svg;" vertex="1" parent="1">
          <mxGeometry x="88.43" y="460" width="36.57" height="40" as="geometry" />
        </mxCell>
        <mxCell id="mIVXYmdaby6aAC75n7bV-25" value="&lt;b&gt;Object Type:&lt;/b&gt; CSV Files&lt;div&gt;&lt;br&gt;&lt;div&gt;&lt;b&gt;Interface:&lt;/b&gt; Files in Folders&lt;/div&gt;&lt;/div&gt;" style="rounded=0;whiteSpace=wrap;html=1;fillColor=none;strokeColor=none;align=left;" vertex="1" parent="1">
          <mxGeometry x="10" y="540" width="150" height="60" as="geometry" />
        </mxCell>
        <mxCell id="mIVXYmdaby6aAC75n7bV-26" value="CRM" style="rounded=0;whiteSpace=wrap;html=1;fillColor=none;strokeColor=none;" vertex="1" parent="1">
          <mxGeometry x="50" y="336" width="39.5" height="20" as="geometry" />
        </mxCell>
        <mxCell id="mIVXYmdaby6aAC75n7bV-27" value="ERP" style="rounded=0;whiteSpace=wrap;html=1;fillColor=none;strokeColor=none;" vertex="1" parent="1">
          <mxGeometry x="48.93" y="486" width="39.5" height="20" as="geometry" />
        </mxCell>
        <mxCell id="mIVXYmdaby6aAC75n7bV-28" value="" style="html=1;verticalLabelPosition=bottom;align=center;labelBackgroundColor=#ffffff;verticalAlign=top;strokeWidth=2;strokeColor=#d6b656;shadow=0;dashed=0;shape=mxgraph.ios7.icons.data;fillColor=#fff2cc;gradientColor=#ffd966;" vertex="1" parent="1">
          <mxGeometry x="215.25" y="286" width="50" height="50" as="geometry" />
        </mxCell>
        <mxCell id="mIVXYmdaby6aAC75n7bV-29" value="" style="html=1;verticalLabelPosition=bottom;align=center;labelBackgroundColor=#ffffff;verticalAlign=top;strokeWidth=2;strokeColor=#666666;shadow=0;dashed=0;shape=mxgraph.ios7.icons.data;fillColor=#f5f5f5;gradientColor=#b3b3b3;" vertex="1" parent="1">
          <mxGeometry x="364" y="286" width="50" height="50" as="geometry" />
        </mxCell>
        <mxCell id="mIVXYmdaby6aAC75n7bV-30" value="" style="html=1;verticalLabelPosition=bottom;align=center;labelBackgroundColor=#ffffff;verticalAlign=top;strokeWidth=2;strokeColor=#b85450;shadow=0;dashed=0;shape=mxgraph.ios7.icons.data;fillColor=#f8cecc;gradientColor=#ea6b66;" vertex="1" parent="1">
          <mxGeometry x="510" y="280" width="50" height="50" as="geometry" />
        </mxCell>
        <mxCell id="mIVXYmdaby6aAC75n7bV-33" value="" style="shape=singleArrow;whiteSpace=wrap;html=1;fillColor=#dae8fc;gradientColor=#7ea6e0;strokeColor=#6c8ebf;" vertex="1" parent="1">
          <mxGeometry x="140" y="380" width="50" height="30" as="geometry" />
        </mxCell>
        <mxCell id="mIVXYmdaby6aAC75n7bV-34" value="" style="shape=singleArrow;whiteSpace=wrap;html=1;fillColor=#dae8fc;gradientColor=#7ea6e0;strokeColor=#6c8ebf;" vertex="1" parent="1">
          <mxGeometry x="295" y="380" width="50" height="30" as="geometry" />
        </mxCell>
        <mxCell id="mIVXYmdaby6aAC75n7bV-36" value="" style="shape=singleArrow;whiteSpace=wrap;html=1;fillColor=#dae8fc;gradientColor=#7ea6e0;strokeColor=#6c8ebf;" vertex="1" parent="1">
          <mxGeometry x="435" y="380" width="50" height="30" as="geometry" />
        </mxCell>
        <mxCell id="mIVXYmdaby6aAC75n7bV-37" value="" style="shape=singleArrow;whiteSpace=wrap;html=1;fillColor=#dae8fc;gradientColor=#7ea6e0;strokeColor=#6c8ebf;" vertex="1" parent="1">
          <mxGeometry x="600" y="380" width="50" height="30" as="geometry" />
        </mxCell>
        <mxCell id="mIVXYmdaby6aAC75n7bV-38" value="Raw Data" style="rounded=0;whiteSpace=wrap;html=1;fillColor=none;strokeColor=none;" vertex="1" parent="1">
          <mxGeometry x="210.5" y="341" width="54.75" height="20" as="geometry" />
        </mxCell>
        <mxCell id="mIVXYmdaby6aAC75n7bV-39" value="Cleaned, Standardized Data" style="rounded=0;whiteSpace=wrap;html=1;fillColor=none;strokeColor=none;" vertex="1" parent="1">
          <mxGeometry x="335" y="331" width="110" height="50" as="geometry" />
        </mxCell>
        <mxCell id="mIVXYmdaby6aAC75n7bV-40" value="Business-Ready Data" style="rounded=0;whiteSpace=wrap;html=1;fillColor=none;strokeColor=none;" vertex="1" parent="1">
          <mxGeometry x="490" y="331" width="90" height="40" as="geometry" />
        </mxCell>
        <mxCell id="mIVXYmdaby6aAC75n7bV-44" value="" style="line;strokeWidth=1;fillColor=none;align=left;verticalAlign=middle;spacingTop=-1;spacingLeft=3;spacingRight=3;rotatable=0;labelPosition=right;points=[];portConstraint=eastwest;strokeColor=inherit;" vertex="1" parent="1">
          <mxGeometry x="185.25" y="371" width="110" height="8" as="geometry" />
        </mxCell>
        <mxCell id="mIVXYmdaby6aAC75n7bV-45" value="" style="line;strokeWidth=1;fillColor=none;align=left;verticalAlign=middle;spacingTop=-1;spacingLeft=3;spacingRight=3;rotatable=0;labelPosition=right;points=[];portConstraint=eastwest;strokeColor=inherit;" vertex="1" parent="1">
          <mxGeometry x="340" y="371" width="100" height="8" as="geometry" />
        </mxCell>
        <mxCell id="mIVXYmdaby6aAC75n7bV-46" value="" style="line;strokeWidth=1;fillColor=none;align=left;verticalAlign=middle;spacingTop=-1;spacingLeft=3;spacingRight=3;rotatable=0;labelPosition=right;points=[];portConstraint=eastwest;strokeColor=inherit;" vertex="1" parent="1">
          <mxGeometry x="485" y="371" width="100" height="8" as="geometry" />
        </mxCell>
        <mxCell id="mIVXYmdaby6aAC75n7bV-48" value="" style="line;strokeWidth=1;fillColor=none;align=left;verticalAlign=middle;spacingTop=-1;spacingLeft=3;spacingRight=3;rotatable=0;labelPosition=right;points=[];portConstraint=eastwest;strokeColor=inherit;" vertex="1" parent="1">
          <mxGeometry x="30" y="510" width="120" height="8" as="geometry" />
        </mxCell>
        <mxCell id="mIVXYmdaby6aAC75n7bV-49" value="&lt;font style=&quot;font-size: 10px;&quot;&gt;&lt;b&gt;Object Type: &lt;/b&gt;Tables&lt;/font&gt;&lt;div&gt;&lt;font style=&quot;font-size: 10px;&quot;&gt;&lt;br&gt;&lt;/font&gt;&lt;div&gt;&lt;font style=&quot;font-size: 10px;&quot;&gt;&lt;b&gt;Load:&lt;/b&gt;&amp;nbsp;&lt;/font&gt;&lt;/div&gt;&lt;/div&gt;&lt;div&gt;&lt;font style=&quot;font-size: 10px;&quot;&gt;* Batch Processing&lt;/font&gt;&lt;/div&gt;&lt;div&gt;&lt;font style=&quot;font-size: 10px;&quot;&gt;* Full Load&lt;/font&gt;&lt;/div&gt;&lt;div&gt;&lt;font style=&quot;font-size: 10px;&quot;&gt;* Truncate &amp;amp; Insert&lt;/font&gt;&lt;/div&gt;&lt;div&gt;&lt;font style=&quot;font-size: 10px;&quot;&gt;&lt;br&gt;&lt;/font&gt;&lt;/div&gt;&lt;div&gt;&lt;font style=&quot;font-size: 10px;&quot;&gt;No &lt;b&gt;Transformations&lt;/b&gt;&lt;/font&gt;&lt;/div&gt;&lt;div&gt;&lt;font style=&quot;font-size: 10px;&quot;&gt;&lt;b&gt;&lt;br&gt;&lt;/b&gt;&lt;/font&gt;&lt;/div&gt;&lt;div&gt;&lt;font style=&quot;font-size: 10px;&quot;&gt;&lt;b&gt;Data Model:&lt;/b&gt; None (as-is)&lt;/font&gt;&lt;/div&gt;" style="rounded=0;whiteSpace=wrap;html=1;fillColor=none;strokeColor=none;align=left;" vertex="1" parent="1">
          <mxGeometry x="185" y="385" width="120" height="190" as="geometry" />
        </mxCell>
        <mxCell id="mIVXYmdaby6aAC75n7bV-50" value="&lt;font style=&quot;font-size: 10px;&quot;&gt;&lt;b&gt;Object Type: &lt;/b&gt;Tables&lt;/font&gt;&lt;div&gt;&lt;font style=&quot;font-size: 10px;&quot;&gt;&lt;br&gt;&lt;/font&gt;&lt;div&gt;&lt;font style=&quot;font-size: 10px;&quot;&gt;&lt;b&gt;Load:&lt;/b&gt;&lt;/font&gt;&lt;/div&gt;&lt;/div&gt;&lt;div&gt;&lt;font style=&quot;font-size: 10px;&quot;&gt;&lt;div style=&quot;font-size: 12px;&quot;&gt;&lt;font style=&quot;font-size: 10px;&quot;&gt;* Batch Processing&lt;/font&gt;&lt;/div&gt;&lt;div style=&quot;font-size: 12px;&quot;&gt;&lt;font style=&quot;font-size: 10px;&quot;&gt;* Full Load&lt;/font&gt;&lt;/div&gt;&lt;div style=&quot;font-size: 12px;&quot;&gt;&lt;font style=&quot;font-size: 10px;&quot;&gt;* Truncate &amp;amp; Insert&lt;/font&gt;&lt;/div&gt;&lt;/font&gt;&lt;/div&gt;&lt;div&gt;&lt;font style=&quot;font-size: 10px;&quot;&gt;&lt;b&gt;&lt;br&gt;&lt;/b&gt;&lt;/font&gt;&lt;/div&gt;&lt;div&gt;&lt;font style=&quot;font-size: 10px;&quot;&gt;&lt;b&gt;Transformations:&lt;/b&gt;&lt;/font&gt;&lt;/div&gt;&lt;div&gt;&lt;font style=&quot;font-size: 10px;&quot;&gt;* Data Cleaning&lt;/font&gt;&lt;/div&gt;&lt;div&gt;&lt;font style=&quot;font-size: 10px;&quot;&gt;* Data Standardization&lt;/font&gt;&lt;/div&gt;&lt;div&gt;&lt;font style=&quot;font-size: 10px;&quot;&gt;* Data Normalization&lt;/font&gt;&lt;/div&gt;&lt;div&gt;&lt;font style=&quot;font-size: 10px;&quot;&gt;* Derived Columns&lt;/font&gt;&lt;/div&gt;&lt;div&gt;&lt;font style=&quot;font-size: 10px;&quot;&gt;* Data Enrichment&lt;/font&gt;&lt;/div&gt;&lt;div&gt;&lt;font style=&quot;font-size: 10px;&quot;&gt;&lt;b&gt;&lt;br&gt;&lt;/b&gt;&lt;/font&gt;&lt;/div&gt;&lt;div&gt;&lt;font style=&quot;font-size: 10px;&quot;&gt;&lt;b&gt;Data Model:&lt;/b&gt; None (as-is)&lt;/font&gt;&lt;/div&gt;" style="rounded=0;whiteSpace=wrap;html=1;fillColor=none;strokeColor=none;align=left;" vertex="1" parent="1">
          <mxGeometry x="332.5" y="414" width="120" height="200" as="geometry" />
        </mxCell>
        <mxCell id="mIVXYmdaby6aAC75n7bV-51" value="&lt;font style=&quot;font-size: 10px;&quot;&gt;&lt;b&gt;Object Type: Views&lt;/b&gt;&lt;/font&gt;&lt;div&gt;&lt;font style=&quot;font-size: 10px;&quot;&gt;&lt;br&gt;&lt;/font&gt;&lt;div&gt;&lt;font style=&quot;font-size: 10px;&quot;&gt;No&lt;b&gt; Load&lt;/b&gt;&lt;/font&gt;&lt;/div&gt;&lt;/div&gt;&lt;div&gt;&lt;font style=&quot;font-size: 10px;&quot;&gt;&lt;b&gt;&lt;br&gt;&lt;/b&gt;&lt;/font&gt;&lt;/div&gt;&lt;div&gt;&lt;font style=&quot;font-size: 10px;&quot;&gt;&lt;b&gt;Transformations:&lt;/b&gt;&lt;/font&gt;&lt;/div&gt;&lt;div&gt;&lt;font style=&quot;font-size: 10px;&quot;&gt;* Data Integrations&lt;/font&gt;&lt;/div&gt;&lt;div&gt;&lt;font style=&quot;font-size: 10px;&quot;&gt;* Data Aggregations&lt;/font&gt;&lt;/div&gt;&lt;div&gt;&lt;font style=&quot;font-size: 10px;&quot;&gt;* Business Logics&lt;/font&gt;&lt;/div&gt;&lt;div&gt;&lt;font style=&quot;font-size: 10px;&quot;&gt;&lt;b&gt;&lt;br&gt;&lt;/b&gt;&lt;/font&gt;&lt;/div&gt;&lt;div&gt;&lt;font style=&quot;font-size: 10px;&quot;&gt;&lt;b&gt;Data Model:&lt;/b&gt;&amp;nbsp;&lt;/font&gt;&lt;/div&gt;&lt;div&gt;&lt;font style=&quot;font-size: 10px;&quot;&gt;* Star Schema&lt;/font&gt;&lt;/div&gt;&lt;div&gt;&lt;font style=&quot;font-size: 10px;&quot;&gt;* Flat Table&lt;/font&gt;&lt;/div&gt;&lt;div&gt;&lt;font style=&quot;font-size: 10px;&quot;&gt;* Aggregated tables&lt;/font&gt;&lt;/div&gt;" style="rounded=0;whiteSpace=wrap;html=1;fillColor=none;strokeColor=none;align=left;" vertex="1" parent="1">
          <mxGeometry x="475" y="414" width="120" height="200" as="geometry" />
        </mxCell>
        <mxCell id="mIVXYmdaby6aAC75n7bV-52" value="" style="image;aspect=fixed;html=1;points=[];align=center;fontSize=12;image=img/lib/azure2/analytics/Power_BI_Embedded.svg;" vertex="1" parent="1">
          <mxGeometry x="674.5" y="250" width="51" height="68" as="geometry" />
        </mxCell>
        <mxCell id="mIVXYmdaby6aAC75n7bV-53" value="" style="points=[];aspect=fixed;html=1;align=center;shadow=0;dashed=0;fillColor=#FF6A00;strokeColor=none;shape=mxgraph.alibaba_cloud.machine_learning;" vertex="1" parent="1">
          <mxGeometry x="674.5" y="506" width="54.3" height="54.63" as="geometry" />
        </mxCell>
        <mxCell id="mIVXYmdaby6aAC75n7bV-54" value="" style="shape=image;verticalLabelPosition=bottom;labelBackgroundColor=default;verticalAlign=top;aspect=fixed;imageAspect=0;image=data:image/png,iVBORw0KGgoAAAANSUhEUgAAAgAAAAIACAYAAAD0eNT6AAAACXBIWXMAAAsTAAALEwEAmpwYAAAgAElEQVR4nO29C2xd5Znv/TiOY8eJk9jxJTYBciOAcyEh4NwhMRoikIoKLZ2UQainQxFCSD2Halpx0u8MmkGTdlDpd8RR5tBC4SujDsOg6pTOdIrKtOocBnJCGCiQg5AppTBDuMTMNBRccKf70+O+K13Z7G3vy1rrvf1+0iPH9va2867nff7/9d6WiEhvEmNjYxtLpdJoKkZKpVKbAGRPq4j0zJB/wzQ8BEhHOu/Xrl07MD4+vq0s95fb/iMhWNpT+TdjEcYEQNYg/hA7mACwLf69tRZjTABkBeIP8FswAWBN/Pfu3TuUfAMTAEWA+AOcDCYArIj/xMTEjvQLMAGQJ4g/QGUwAVC4+OvofvkLMQGQB4g/wPRgAqBQ8a9kABRMAGQJ4g9QG5gAKEz8qxkABRMAWYD4A9QHJgAKEf+ZtppiAqAZEH+AxsAEgFXxT8AEQCMg/gDNgQkAq+KfgAmArPOFE/4AZgYTAFbFPwETAFnlCeIPUDuYALAq/gmYAGg2PxB/gPrBBIBV8U/ABECjeYH4AzQOJgCsin8CJgDqzQfEH6B5MAFgVfwTMAFQax4g/gDZgQkAq+KfgAmIG8QfwA6YgLhpty3+CZiAOEH8AeyCCYiTdlfEPwETEBeIP4AbYALiot018U/ABMQB4g/gFpiAOGh3VfwTMAFhg/gDuAkmIGzaXRf/BExAmCD+AG6DCQiTdl/EPwETEBaIP4AfYALCot038U/ABIQB4g/gF5iAMGj3VfwTMAF+g/gD+AkmwG/afRf/BEyAnyD+AH6DCfCT9lDEPwET4BeIP0AYYAL8oj008U/ABPgB4g8QFpgAP2gPVfwTMAFug/gDhAkmwG3aQxf/BEyAmyD+AGGDCXCT9ljEPwET4BaIP0AcYALcoj028U/ABLgB4g8QF5gAN2iPVfx9MwH9IvIxEfljEfkrEXlSRF4SkbdF5AMRKYUSw8PDpdHR0ROhn9v+m4gZ2+ADk4svmdz8loj8N5OzfZb7DrgJJsAu7bGLv+sm4DwRuV1EnhWR38QgQoh/kKG5+4yIfEVENhXch8BtMAF2QPwdNQFdInKTiBxxoHAj/g60S4DxnIj8FxGZn3NfAj/ABBQL4u+gCegWkVtEZNyBAo34O9AmEcQxM02wKIf+BH6BCSgGxN8xE9AiIteIyBsOFGTE34H2iDDU9H5WRGZl1KfATzAB+YL4O2YCVorI/3agACP+DrQFIf8oIlEsOoKqYALyAfF3zAR81Kyajrbws+DP/jVwMH4hIp9osE9BGGACsgXxd8gE6JD/bQ4UWquB+Nu/Bo7vGviS6SsQJ5iAbED8HTIBs0XkbgcKrNVA/O1fA0/iPhGxff4G2AMT0ByIv0MmQL/3kANF1Wog/vavgWfxHUxA1GACGgPxd8gE6FDmPQ4UU6uB+Nu/Bp7GXzIdEDWYgPpA/B0zAcz5c7yvbRH1PXRNAMQLJqA2EH/HTMDHHSieVgPxt38NAlkYeHnenRucBhMwPYi/SyZg2bJlZ4rIvztQPK0F4m//GgQU/8Y5AdGDCagM4u+SCfj1r389Ojo6+lRbW5vtomktEH/71yDA+BHrAaIHE3AyiL9rJuDmm2/+c32U7cjISClGE4D4278GAcfVtjo8OAMm4Lcg/q6ZgL/5m7+54OKLL/635Hn2sZkAxN/+NQg8XheRhbY7PnhhAvQha6HSnv7/7927d2hiYmJH2f+fo7UtmIAvl4vgunXrbBfNQgLxt38NIol9RXRs8NoEhCx+7Yi/mybgNPOY0xNiuG3btlJHR4ftgpl7IP72r0FEoX1svu1OD26agGPHjp0i4dKG+LtrAvalC9WyZcsQf/tiQYTZBv/ZdocHJ01Ap4RPF8P+bvKsA4Wx0ODO3/41iDSes93ZwTkTULT4W3tg1c0337yYOX+3OM+BolhoIP72r0HkscF2p4foaDEPdpslInPNkHybmZdvMV8vhFKpNMyCP3e43YGCaM0A6L9t/z1EdG3w57Y7PUTFLDP8nizC6zJrv3rMzpRFxhx0FjU6UPqtCQh5waM3RDf8r6HCj/jbvw6RxlO2Oz1Et9BbYzAVQyaSz/tEZIF5XWGjAWCXfnNeue2CSNAGMeXAb8ydGECezDbC3l8m+tVCXzNgchMTEAEfc6AYErRBjDnAQ4Igb/EfSAn7UJ2hxgETEDh/7EAhJGiDGHPgi7Y7PwQ97N/fgOiXByMBgfMtBwohQRvEmAP32e78ECR6175YRJZkYAD6zAJBa9sGIV8OO1AICdogxhw4RHGDjFGhnmdW9g9lEGoi9LkEnF4ZKC87UAgJ2iDGHHjJdueHIO/+52R0958eBdDzAlgPECDjDhRCgjaIMQfest35IThmGcFuZNHfdDsDdBQAAxAg7ztQCAnaIMYc+JXtzg/BDf/PNfv4sxL/JBaZQ4QgMGwXwVqSr8cMawGElv8AWTInJwNADQ4U2wWw1uTTOSiA0PIfoJl9/r3mY9oA9OVkAKjBAWK7ANayClXPrWYEAELMf4BmD/kZMJ+3mLP8uzMWf2pwwNgugLUsQGEfKoSa/wDNiP9QmQlozWkRIDU4UGwXwJmSry+V2C2pR1pK6iOHVICv+Q/QrPinTYAu1OvI2ABQgwPGdgGcaehpgTmEYo6Zg5pvDrroMsNd81J7XzEC4Fv+A2Qh/mkT0G1OAszCBJTX4HZTe+dRg8PAdgGcbthpwLjPbnOyVV/qa0PmrOslZoFKl0lS9qqCT/kPkJX4p2tnfwbPAiivwYvMe1KDA8J2AZzJffaVzWlVc7VJwqvzxQSAL/kPkKX4l9fPLEYAqMEBY7sA1pKAtQ5lJa/jMZbgS/4D5CH+WQY1OGBsF8DyROvPaO4KEwA+5D9A3uKfDOXXUlepwZFhuwAOpuasulNzTIMZPcWK6QBwOf8Birjz7zfrqCrdzVODI8Z2AewxQt1mEnRhBotXEgPQZ1awsjsAXM1/gCKG/ZPV/G2mLi4ypwjqmilqcMTYLoAd5i691SR+V4aPshwwSZ8+KhPApfwHKGrOfyD1WN+55t8dFWrwggzPERigBruNKwUwOeAn63Osu01iA7ic/wBFLPhLTgysRIsxBVmMwA5Rg/3AlQLYkrHzTGKJcbsALuc/xE2Rq/2rmYAWMzVADY4IVwpgmznZL+tO0GtOrWIaAFzOf4gXG1v9KpkAPemPGhwZLhXAhTklu54QCOB6/kOc9BYs/tOZAGpwZNgugLNT7nN+Dk54sXG1rAMAF/MfoNXiYT9pE0ANjhDbBTD9LOu85p/0ARYALuY/gCsmgBocIbYLYJKAbTmtQF1otrhwFgC4mP8ArpgAanCE2C6A6QScZw6lGMxw+F+nFRj+B1fzH8AlE0ANjgzbBTCdgINGtLN4HkByvLAmNHf/4Gr+A7hkAqjBkWG7AFZzolnM/fNoYHA9/wFcMwHU4IiwXQDzSmCeBgg+5D+AqyaAGhwBtgtgLUNStU4HJE+6QvzBl/wHcN0EUIMDxnYBrEXU+2t4QFC/CYb9waf8B3DdBFCDA8Z2Aax1K998c2efPOY3Ef1Bc37AQvMsAd3yB+BL/gP4YAKowYFiuwDWc5hPq1nV32nEfn7qlD/dw8pqf/At/wF8MAHU4ECxXQAbOa0qOboy+chdP/ia/wA+nRNADQ4M2wWwkQQECCX/AXw0ARAItgsgCQgx5z9AI2ACIIgCiAuFmPMfoFEwARClAWCfP4SS/4TdNvhARN4UkUMi8jUR+aSIdHnUvWyZgD7WXoWB7QJE4kHM+U+41wbvishdInKGJ12zaBOA+AeE7c5G4kHM+U+4PTpwm4h0eNBFizIBiH9g2O5kJB7EnP+E+23wzyJyqgfdNG8TgPgHiO3OReJBzPlP+NEG/yIi50RsAhD/QLHdsUg8iDn/CX/a4DUROSVCE4D4B4ztTkXiQcz5T/jVBodFZG5EJgDxDxzbHYrEg5jzn/CvDf7Eky7brAlA/CPAdmeymnilUkkfIgTxYjv/Cf/a4D0RWSphmwDEPxJsdyab4j9cKpVGMAFRYzv/CT/b4C/EH+o1AYh/RNjuSDbFf9QEJiBebOc/4e9hQSGeGFh0DV5exO8C9w1Aka6za2xsbGPKAGAC4sV2/hP+tsHvi1/MZAJs3YAtL+J3grsGoFDxF5FeDUwAOJD/hL9tcGdGPahdRDotm4DCavCuXbsWjY+Pbyu7AcMEWMJ2JypS/FtEpCcxAJgAcCD/CX/b4PGMxD+pR7ZMQOE3YGvXrh3ABLiB7U5UVOKlkx8TAK7kP+FvG7yRofj37t27d2hiYuK0gk1AkeI/J/3/xQTYp7U8qXt7e4vuRLb+35gAEAdEhPC3DX6VsfjvKHg4vNXCDVgHJsANEhE8kdDDw8Ol0dHR0vLly0M3AOn/P9MBcWNbRAi/2yBr8U+iW8KlAxNgl7T4nST+SfT19bncgfJoB9YExIltASH8boM8xD+GBXEdmAA3RO9D4q+fO9yB8m4PdgfEhW0BIfxug3pA/E8GE2Bb7CyLvwsGQMEExIttASH8boNaQfwrgwmwKXKWxd8VA6BgAuLEtoAQfrdBLSD+04MJsCVulsXfJQOgYALiw7aAEH63wUwg/rWBCbAhapbF3zUDoGAC4sK2gBB+t8F0IP71gQkoWswsi7+LBkDBBMSD7fwn/G6DaiD+jYEJKFDEhh3uQLbBBMSB7fwn/G6DSiD+zYEJKEj8xdEO5AqYgPCxnf+E321QDuKfDZiAAsRfHOxAroEJCBvb+U/43QZpEP9swQTkLP7iWAdyFUxAuNjOf8LvNkhA/PMBE5Cj+ItDHch1MAFhYjv/Cb/bQEH88wUTkJP4iyMdyBcwAeFhO/8Jv9sA8S8GTEAO4i8OdCDfwASEhe38J/xuAx7sUxyYgIzFXxzoQD6CCQgH2/lP+N0GsT/Vr2gwARmKvzjQgXwFExAG5L/f2L5+iH/xRG8CshJ/FzqQz2AC/If89xur1487f2tEawKyFH+FApj/9RgplUptTf4eyAfy32+sXb+Ojo4Sw/5Wic4EZC3+CgWwmOuCCXAT8t9vrIn/tm2qNeGKjSd0xGIC8hB/hQJY3PXBBLgH+e831sRfn6Qamsh4SkfoJiAv8VcogMVeJ0yAW5D/fmNN/FMGwGtxCYSOUE1AnuKvUACzBRPgF+S/31gTf2MAvBSVQOkIzQTkLf4KBTB7MAH+QP77jTXxX758uX4P3CIYE1CE+CsUwHzABPgB+e83NsUfA+Am3puAosRfoQDmBybAfch/v7Ep/hgAd/HWBBQp/goFMF8wAW5D/vuNTfHHALiNdyagaPFXKID5gwlwF/Lfb2yKPwbAfbwxATbEX6EAFgMmwE3If7+xKf4YAD9w3gTYEn+FAlgcmAD3IP/9xqb4YwD8wVkTYFP8FQpgsWAC3IL89xub4o8B8AvnTIBt8VcogMWDCXAH8t9vbIo/BsA/nDEBRYv/AhG5SkS+LiKHRORNEfnAgQJImDYYHh4+qQCNjIyU2traaJ+wc+QD0xe1T35NRD4pIl0Z9vvQsSn+GAA/sW4CihT/M0XkbhF5z4FiR8zQBpgAckRE3hWRu0TkjIxqQMjYFH8MgL9YMwFFiX+niHxFRCYRXr9EBRNg/xo4NDpwmylWUBmb4q8B/lK4CShK/FeLyHMOFDCiwTbABJA7qXw4KCKDGdSFELEp/hgA/ynMBBQl/ueaOUXE1/M2wATYvwYOxb+IyDkZ1IfQsCn+GuA/uZuAIu/8Ef+AAhNg/xo4FK8yEvAhbIq/BoRBbiagKPHX/8DTDhQpIuM2wASQU6l8OCwiczOoF6FgU/wxAGGRuQkocrW/LvhDfANtA0yA/WvgUPxJRjUjBGyKvwaERWYmoOitfqz2DzwwAfavgSPxS6YCTmBT/DUgPJo2AUUf8vMNB4oSUUAbYALIM5MLf5Fh/fAZm+KPAQiXhk2AjRP+9OAQBDiSNsAE2L8GDoT2eU4MtCv+GhCxCXDhbP+rHChGRMFtgAkg50Tk9zOuJT5iU/wxAJGbABce7KNn+yPAEbYBJkBijztzqCe+YVP8NSBiE+DCU/0OOVCICEttgAmIOvcez6mm+IRN8deAiE2AC4/0fcuBQkRYbANMQLT594bETbtl8deAiE2AWBZ/5X0HChFhuQ0wAVHm4K8kbvHvtSz+GhCxCRDL4q9gAOwXYicCExBd/Cpy8e+1LP4aELcJsCr+yrgDhYhwpA0wAVGFTv/FLP69lsVfA+I2AVbFX3nZgUJEONQGmIBo4iWJWPz37t07ZFn8NSBeOsSy+It5OIjtQkQ41gaYgChCdwBFK/4TExM7LIu/BsSMZfFX/sqBQkQ42AaYgODjPolY/LXmWhZ/DYgZy+Kv3OJAISIcbQNMQNDxRYlY/BMDYFH8NSBmLIu/8nEHChHhcBtgAoKNyyVi8dewLP4aEDOWxV/pF5HfOFCMCIfbABMQXPxHsgo5VvE3T2OzfR0ArPOcAx2BcLwNMAFBxT9LuNQq/uLAdQCwzlcd6AiEB22ACQgmvixhUo/4iwPXAcA6Iw50BMKTNsAEBBHnSHjUK/7iwHUAcAKmAewXA28CE+B1aF8PjUbEXxy4FgBO8EcOdAbCozbABHgbn5WwaFT8xYFrAeAEC0TkbQc6BOFRG2ACvItjIjJfwqEZ8RcHrgeAM/ypAx2C8KwNMAFexX+VcGhW/MWB6wHgDD3mDsF2pyA8awNMgBfxmhnpC4EsxF8cuCYATvEZBzoF4WEbYAKcj6skDLISf3HgmgA4xSwRedyBjkF42AaYAGfjhyLSIv6TpfiLA9cFwDlWicgvHOgchIdtgAlwLnRxbz2iGIv4iwPXBsBJPuFA5yA8bQNMgDOhz/n4qPhPHuIvDlwfAGf57w50EMLTNsAE2L8GInKr+E9e4i8OXB8Ap9cDPOBAJyE8bQNMgNX2vy+Aef88xV8c6CMAznfAHzjQUQhP2wATYKXd/5eIzBa/yVv8xYH+AeA8c0Tkrx3oLISnbYAJKLS9/z8RaRO/KUL8xYG+AeAFrSLyPxzoMISnbYAJKGTBn875M+xfO7b7BYBXXC0i7zjQcQgP2wATkFvb/ruIfFz8p6g7/wTbfQLAO84Skf/jQOchPGwDTEAuh/ycLv5TtPiLA/0BwEt0mPEaEXnLgU5EeNYGmIBM2vGo6YO+D/knU4xFi7840BcAvEY77H5ODrReSLwLTEDDbfemeapfl4RFR8HiLw70A4Ag6BaRfSIy5kCnIjxpA0xAXe31ExH5rIjMk0C57rrrOgsUf3GgDwAEhQ5HbheRO0TkeQc6GOF4G2ACqrbNf4jIUyLyZRE5x3KfrvQxF0ql0mBB4j/16zAAAPlxiojsFZE/NacKPi0iPzMPKPm1Ax2QcKANIjYB74vIuIj8VESeEJG/FJEvisjlIrK44MLUUnYK6GwTc80c/RzzcVZBJqCIBxjZvv4AANGhQtKTXvg1Nja2sWzod6RUKvl+oI0vtKQEfq5ZX9BpTEiXuVad5mOHeW0I1wYDAABgAUyAO+LfaYR/gYr+xo0b+3bt2rXk/PPPX3L77bevWL58+cBNN9106pIlS/qMYUsMghoBn8EAAABYAhNgX/xVzBds2rSpd2BgoH/fvn2nf/e73z3jjjvuWP7Tn/70vO9973vD4+PjWw4cOLDi0KFDa/bs2TO4du3agXXr1nWbn9X9+76CAQAAsAgmoHjRbzFz+Yt0B8+nP/3poeuvv/6UH/zgB2e/9tpr52lMTk5eMDk5uSuZktHPX3/99S1qBm699dbTb7jhhlMvueQSHRFY6LEJwAAAAFgGE1AMifDr4j69g+/VO/677rpr1TPPPLPOiP1uE6MVYurrExMTO++5554z9u/fvyxlAnycDsAAAAA4ACYgf04Sfx3mf/TRR9e8+OKLm6oIftWYmJi4QE2AGohFixbpSMJ8cw19AgMAAOAImID8DcCU+Ouc/pEjRza++uqrI/WKf8oE7LzmmmtOMQsDEwPg09HEGAAAAIfABBQk/seOHdtcTdwnJydnNADvvPPOhbouQBcFGhPg21oADAAAgGNgArKlxczT93zpS186TVfzv/rqq5unu7N/5513dBGgxoXTrQnQ6YOHH374rKVLl/Z4OA2AAQAAcBBMQLb7/LtuvPHGofvuu2/Vz3/+86pz/k8//fTGRx55ZFhD5/ePHj16/tjY2LnGCFRcC6BrCcyhQXMr/G6XwQAAADgKJqB5po7zPe2007qvuOKKwSeffHJ9NfHXBYG33Xbb8htvvHHp/Pnzezdv3jyghwEdPnx43QsvvHCOjgiU/4xuC/zxj398tjkkaGHZscGzHR8RwAAAADgMJqD5uf/5esjP3/3d361O7+1Ph54B8Ad/8AdLL7744n5zPsACc+zvYjUCjz322Lrjx49vL58O0K898MADq8wIQI+JeebzTvPvdvN3uGYGMAAAAI6DCWgcFd/uz3/+80tfeeWV8ysZgOeff36THvWrRwCbu/i5RrDbzN38Yj0BUBcNlv+8vue1116rIwZTxwfrSIDuDNCP+vnIyMhis/hwvvlbXFooiAEAAPAATED9qIh36QI9nad/7rnnzqkwh79LpwVuueWWZebOv7Ps52eb0YBeXeyXNgA6/68LCnVXgY4u3HLLLae9/PLL5+pJgTploB/1WGH9aHYJLDQjAjqy4AIYAAAAT8AE1N9enevXr+9XcVbBrmQAdHjfzOEvMqKfXsQ39ZCgyy67bGoaYHx8fGtq/n+rbgPUhYK6sFDff2JiYod+1EWDuptAv3706NERXXyoowRmRGC+IyYAAwAA4BGYgDrbatWqVX2vvPLKeSrI5fv79Wt6h67D9am781lG/HUKoH3BggU9ug5AFwOWbwPUnzfvm6wNOGmNgI4YJKHrDC677LIh8yChZErAJhgAAIDATYAOYV8lIl8XkUMi8qaIfOCAABQSnZ2dpb6+vtKFF15YGh0dTcfkxRdf/G/bt28/Mnv27G+KyGdEpM+YABXnNjNs3/ujH/1Ih/8vTAn9h54RUEv88Ic/PFPNhDk+uMPywkDb1wYAAPIwAd/85jc/3tHR8Q0Rec+BYm8tWltbS+vXry9t3769tHv37pNMwAUXXFA699xzS2efffbU61paWt5taWlRM7DJiHTvgw8+eMbRo0d1AeDORo8NTodOB5hr1mWuY3raoUhsXxsAAMjSBPzrv/7rJZ/+9KcfGB0d/fXIyEipra3NdqG3Gh0dHaWFCxeWduzYUT4CMBXbtm07YQL0tWoEOjs7P+jq6jpw4MCBdSr+ZgtgtWODd9U6EqDrA8bHx7fpIUPmmqUXHRaN7WsDAAAZmoDNGzZseDEtcJgAKZ1yyimldevWfWgEIAkdHdi5c2dp06ZNpdNPP7101llnTcVHPvKR//v973//o2WCf+Lf+jAhPQ5YFwLqLgNdDzCDCdit2w7vv//+1VdeeWWy7kB3GtgAAwAAEIgJGBWRt7SwDw8PnyRwsZuA9vb20saNGyutAzgRu3btmgqdFtiyZcuJr+/Zs+fNb33rW9cmIm6eE3ChLur7whe+cJqeHqjz+nfdddcqXeR3/PjxbTOMAlz47W9/e7XZeaCLAZkCAACAhjkrEf8kMAEnm4B58+ZVnQaYKdQEPP744x/X4X4dxr/33ntX6lMAN23alOzv79Y1AytXruxXM6DD/NMZgCeeeGKtvs5sPUwWaxaNbWMGAABNoqvJn65UZDEBv2uLlpaW0qJFi6bu8BsxAR/5yEde+NnPfrYntYgvOdhnrhmF0d0W87u6uhbryEC1dQNqAH7yk58kBiB5foANMAAAAJ7zlemKOSbgt+0wa9asqQV+8+fPnxoJOP/88ytOCejw/3nnnVfRBIyMjBzQ5wqkjgxO373rUH6nPnhIHyikawIqbRtUA6CnCpopAN0JwBQAAADUzZkiMjnT3Rwm4HejAPpx7ty5U1sDly1bNmUGdBeAftSvDQ0NldasWTO1KDAt/moYenp63l2+fPk6c+dfPnSfHB7Ufemlly7RhYGVTh984403tv793//9mebBQ2oAmAIAAIC6+UatQ7mYgJPbY/bs2VNTAgsWLCideuqppYGBgSljoJ+rAdCdAbooUMVfRwrUJOhrTJvPM4KfRj9v7e7uXqjD+zrPX37yYHL88Oc+97lkG6AuArQFUwAAAJ6ic87v1lPIMQGVRwTUDCSfDw4OllatWnVC/JPYsGHD1BSCafPy5wYkqKD36gOC3nvvve2Tk5PlIwC7v//976/R3QI6VWDu/lkDAAAAdXFVI3dxmIDqbaMC39XV9aHhf/1czxHQ8wTMa/9T6pkByUiAjgp079u379RHH310jZ4PUH44kD4+WJ8+eP31159i1hHo44ZtwQgAAICnfL3RIh6TCUju8mtdKKhCX+nYYJ0C0CkDXUTY0tJyj5m/n23u4KfE/8Ybbxy68847V+qTA8sXAE5MTOx+5513LtTzAszwvy4itIntawMAAA1yqJkCHKIJSMQ+WfE/Z86cqY8ayTB/LccGV9sqqG2mBqCrq+vw4OCginh3T0+PTsX06l29ir8eEJQ6Hvik+Id/+Ic1RvznpUYQbGH7egEAQIOcdPBP7CZABV4FXE/9W7FixdRqfp231/n8/v7+qYV+yf9tulGBM84446QFgOWxevVqnQo4pucB7N27d+iKK64Y1H+/8MILGw4dOrSmmvjr0P+ePXsGdZFg6uwAm9i+ZgAA0CDvZ1GIQzABunpfV+h3d3dPibfu49e7eN3apx/1/6Rb/HQrn5qEav8/HTnQEQB9j+kOBdq4ceP7Op9/9OjRkWeeeWadHvqj/672QKAjR45svPXWW083JwfON4c32bz7FweuGwAA2C7gaROwfPly28JQV+i2Pb3L14f4lC/eS4fO6asx0P+fmoBKowD6NTUA+prpnhugoc8D0FDRN/v9K3pMkpsAACAASURBVIr/2NjYuXfcccfyT33qU/rwnwVVthDawPa1AwCABillbQJ8FH99ap/+7TMd8asn/Olr9fCf6dYD6DMD1FBs3ry56tMDNWZ69G9y53/77bevuO666wbN1sH5joi/OHD9AADA0wLuhPivXbt2RvHfunXrlElQYa9lMaCuH1ADMN1agFrEf//+/cvMnf9Cs2vAFfEXB64hAAB4WsCdFn/9uop3csSvvr4W8U9CFw1u27atqgmoIPo6FbBTPx4+fHidzvmnxN+lO/8E29cRAAA8LeBWQofoq4l/8rl+X+f7dU+/ir++tnzhX2IGdD2AbhPUBYDl6wISE6BnAJRPB6jom6N+dS3A7tdee22TPgb4oYceOksfFTw8PNzjsPiLA9cSAAA8LeCFh+7r19P4Vq5c+SHx12F+XeV/2mmnTW0F7OzsLC1evHhqC2C5+OuBPir8OtTf19c3tW1QjYV+rXyUQHcXqKHQ6YP0zgJ9qt/4+PjWt99+e/sDDzxwpj7hT88B0H3+ZqufCn+no+IvDlxPAADwtIAXGnp3rsKtZ/WXi78O0+tdun4veW36QCD9PPma7hbQ9QA6OqDvk2wZ1Dl//Z4ajHLDoFMO+rvVDOhCSY0HH3zwLBV+HerXs/2vvvpqXejXa+b6dZtfu8PiLw5cUwAA8LSAFx56Cp/egZdv79Ptf6lz+k8KNQH6czoioHfxOqSvOwKSn01/1PfR1+goQrkJ0FEF/ZicLrhy5cr+rVu39s+fP7/XDPd3pQ74me24+IsD1xMAADwt4IWGCrLe5Vda9KdD+OZJfSeFfk0PB+rt7Z1aC6BCP9P+fn3/aiagLOalYrZ5sp9UeUqgi9i+pgAA4GkBLywSIdeh+/LFeDrvrwZA78zTP6Of69d1WH/jxo3Tin4lE6DTCbomQEcQqvxds4zw+yT6aWxfVwAA8LSAFxq6oK98+D8Ra52T1yF+NQoq2no0sK7819C5/XrEP72uQOf+p3lugO/YvqYAAOBpAS8sVNh1S54u2Ksm1rraX+/2dbhfP1fhr2QYag1dD6C7DaY5O8B3bF9XAADwtIAXbgD0oT7TDdsnK/tnGt7X9QDpj5VepwZCRxYwABgAAADXKMUUOsQ/01P6ar2r10f66s4AFfhkf38lo6ALAQO+g7V9TQEAwNMCXljoPLzO7etWv5nu8MtDV/1r6HSA7uPXKYJkwaCOLOhivw0bNlQcAdADgKbZCeA7tq8rAAB4WsALDR2K1zvyM888s2YToKKvd/26U0AX9OkoQvmQfrJmoNKxwnr4T8ACZvuaAgDMiD5D/SoR+bqIHBKRN0XkAwcKWOzRKMkBOe3mxDzdR9+9yKD/Nl/rNN8Xc8BO76WXXrrkqaee2vDiiy9umskE6B283tnruoDkEJ/yLX26W0CnAXR7YfpndauhTg2oAZjhLAACAwAAOXCmiNwtIu9RaJ0UmkbFf5YR925zgl7v5s2bB1Tc9+7dO3TRRRcNiMjipUuX6vcWmzP1281Je7167K6agLPPPnvq7j65W0/u+PWjCr8KuIp7NQHXaQBdB7B06dIPHQ6k5kEPHVq4cKHtNg45AAA+hIrDV0Rk0oEiRWRXwBPx17v7Xj07/6abbjr1xhtvXHro0KE1TzzxxNrnnnvunGeeeWbd/v37l+kZ+2oMzPn6C01eLEhMgM7n65oA3RqoQ/x6p69z9rrIT+/49e49Ge5P9vInH3U9gYq/vkdiIsrXDeiDgrj+GAAAKI7VIvIchdcL49Gw+KvwP/roo2v00bnvvPPOBfoY3cnJyV2Tk5MXHj9+fMfExMQFBw8eXH/kyJFzr7zyylNSJqDLfFysC/j0Lj55QmAi+uVD/Trvr6FP+9OfUeHXJwDq4r9K4q+howeVjhYmGAEAgHw418zvU2j9aIOGxH/fvn2nHzlyZKPe7avgl0ql0UqhhmB8fHyLmoNrr712qTEBi8xIQFf531M+1K93+8lT/NasWTM1rK/CriMGOjVQbQ2BLjJUwzDNEcBE8QYSAAK/80f8/RKXegzASeKvi/hU4KuJfyp262jA5OTkBTpqUDYdUPVvU/FXEVcDoOsBdFHfrl27Tjw5sPx5AknowUDpbYKEE/kDAAGjK72fpth6Jzi1ogv4ur/whS+cpnf9dYh/+YjAhWUmoKr4q4CrAVBBr/W8AH2tTgvoVIEDbRtDAABMLfizXYyIfAq4PiK365JLLun7zne+c+bY2NjGRsS/igmoKv66HkAfBFSr+OviQX2WAOKPAQCAYrf6sdrfTwMyE3PN0H+XzuHfd999q6ab82/ABFQ0ALWIv04H6FSAftQ5f10noGcCONCmMQUARM43HChERPYFvNPcpes+/t5du3YtGR8f31pJ0N9+++3tOipgPl5gRH73TCZAV/NX+rt06F8X+Onpfsn+fv2oYq8fdf5f9/hv3bp16umB+nrm/DEAAFAsuqf7XQTYWwMyrfhfccUVgytXruyfP39+n275O3r06Igu6ksL+UsvvTRy5MiRDX/7t397tr5GzwLQlf9mpGDa0QIV+UomINnqp3P6ejaArv7fsmXL1Of6bz1OWIf89QyA9NkAhDP5AwARoMf7Unj9bYOq4q+H+9x1112r7rzzzpV6ut8NN9xw6sTExM60gL/yyivn3X///au/+tWvLtOf2bp1a7+ahj179gwePXr0/ImJiR3TTRkkJwBWGwnQIX0N3QmQPARIX6tTBMz1W88dDABA5HzdgSJEZFfAp8T/85///FK9m3/sscfW6d39k08+uf7ZZ59d//LLL5+bjAAcPXp0s4q/bgs00wR6/n9XT0/Pgq6ursVr164dmMkEpB/aU80EJHf4uqc/ORWQA36cyXkAiJhDDhQhIpsCfpL4q+ircE9MTFw4NjZ2ru79P378+DYVbh0JUAOgIwQp8Z9losO814wmoPzJfdOZAMLJNgCAiHnLgSJENF/AK4p/ItRqAlTIdW7fjADsPnz48DqzSDAR//ShQe21mIDylf2YAO9yGQAi5n0HihDRXAGfEv9rrrnmlErinz7WN1kDcPz48e2PPPLIsHnq3wJzVoDUawIqbe/DBHiVzwAQMbYLENFcG7QlT+dTkVYDUMs+f32NvlZ/xpzpP6dsFKAmE1Btjz8mwIu8/pWlmgMAjmC7CBHNG4CTHtF7/Pjxk1b6VwsVct0dYNYAdJj3qssETHfQDybA+dx+w1LNAQBHsF2EiObaQBo1AZOTk6O6JkC3/TVqAqo9zS8JfeIf19jZHH/cQr0BAIewXYSI5g1AoyZAn/K389ixY5sbNQHbtm2r+khfxN/53P6fBdcaAHAM20WIyMYAWDEB+pjfSiYA8fcir68ssM4AgIPYLkJEc20wywhzq7mec4o0AXqgT7kJQPy9yOlfish8C/UGABzCdiEimmuDTvPEv7lGtFvNv/XrCwswAaW0CdAz/rmmXuT01yzVGwBwCNuFiKizDZIH56jwrl+/vl/F+rTTTtPDfBYvXry4y9zZJR8X5WwCTvwtfX19XEs/8lnP/lhhqd4AgEPYLkZEDW2g5+jrRz1LXx+ss2jRotKpp55aevjhh8/av3//sltuueW0Sy+9dMnmzZsHdu7c2WfEe5EZBejO0QRw/fxrg/2Wag0AOIbtYkTM0AYdHR1Tgt/V1VU699xzpx6ju2PHjtLIyEjp+PHjWycmJi7Qc/5VtA8cOLBCTcH1119/ijnmt8eI+OKcTADXz682eMyM3AAAWC9IxDRtoA/X0Xn1wcHBKdHXhXa7d+8+sdo+LdrJg3/0jP/nn39+k44MGBNwUmRsArh+/rTBv4qIGkMAgClsFyWiShvoUL/e7Z9xxhlV99pXOeBnlz7p77333tt+7733rszZBHD9/GiDV0REH/4EAHAC24WJmEb8165dW1X8qxmAtHirGbj//vtX52gCuH5+nPi3hJoHAOXYLk5Eg+I/gwGYEu/k3xVMQE8GJmA218/51f664I85fwCoiO0iRdQp/lu2bCldeOGFU9+v5cl/FUzAYrMzoO7dAan3WGhGAbh+bh7yo/v82eoHANNiu1gRpg3mzJlTWrVqVWl4eLiq+Ov31qxZM7UwUA/fef3117eMj49vrdEE7L7zzjtXpkYAFtRzWJA+Pjgl/p1mFIDrZ/8uX5/qd9Cc7f8JTvgDgFqxXcB9J7PDfXSrn672ryb+ag50V8C8efNOGAZ9/cDAwNSIQfII3mrTBTpycN555039nkp/Q3t7e2nr1q2+PdgHAAAahALuSPupsG/fvr2iAK9YseKkA4GS0M/VCOhJfLpbYLqn8+n2wfXr109NMejZArWaAIfFHwMAANAEFHAH2q+trW3qkJ+dO3d+SLjPPPPMKWEuF//06EHyPR0lUBOgawQqmQA1B8uWLZsaBaj2fmkT4Lj4YwAAAJqAAm65/VTAu7u7p+7g04f8aGzevHnqjn3u3Lk1v5+aABX6aiZADxTSxYbTvYeaAD1q2IH8wAAAAOQEBdyB9tM7chXmSnfsp59+et3vt3r16qprAXSEQE2FTh04cP0xAAAAlqCAW24/fcCP3m3rqv5ysdaheBXzesRah/Z1PYHO91cyALt27ToxqpA8WdDjAACABqGAW24/FeFTTjll6uE+5WKtawJ0259OEVSbs69kAHS3gM7f6xRCJQOguwFmmgbwJAAAoEEo4A60X29vb9UdALp9rx4DkIwqqAFQoS9fC6DTChgAAADAADgwAqD7+XXIvnwRYBK6Q0C3+tXzvp2dnVMjAHrHX2kKgDUAAABxgwFwoP10Pr6SWCf79/Wufd26dTWbADUVupJftxBWmlbQ31XPzoK8QkcpdAtkE+8BAAANYlsEfCeTdtCDeZYsWVL1EB/9uo4CnH322TWbgP7+/imxL39PnRLQNQf6PvVMK2Qdeqyx/j269qEJEwAAAA2CAXCg/VSI9Xx/HZqvNg2g2wTVBOiiwMQEVFvFv3DhwqndA5V2FujX9M7b5giATnmk/6YmTAAAADQIBiCH9kuEWYVa/63z7cmcuy7QS0Q//TP6fRVnXfRXbQ+/3tHrPn59nY4a6Hsl75f8Tl0wqAKrBwKVmwkdDdD30NEB29c+GQFo0gQAAECD2BYC3/nQ/ykRZRVo3d+vd/Z6N64n/ekwv36u+/T1NeUL8fSuvNJxwOVD+CrsOo8/NDQ09Z76fjrnrw8GUmHV31ftJEA9CtiB656VCQAAgAaxLQK+8yEB7+vrm7oL1+H6jRs3Tt11a+idfTKXrwf8qHCrQdDh+vR76B7+mUxAErp1UEcDdFufir7+Dn3/atMIOiqgpsOlA4CaNAEAANAgtgXAZ1rS/xc9WEfv8vUOX+frVeyrCbGu9tdQQdafUcOQvI+ODPT09NRsAvR3JKMC+jPVfqcKrb5vk6vuXTMBAADQILaLv8/iP0tE3k/EXxfwqZBVW8lfbThft+ol8/iJAdDh/HpMwEyhZwzo9ICeDeDANc/KBPzKdhIAAPiM7cLvKyr+80TkWCL+a9eurUv8NXQqQMW+vF3KTUC975sO/dt0WkLXCThwvbM0AW/YTgIAAJ+xXfR9pVNEent6ep7OWvyT0B0E+n1dE6Ar/3XRX7WFfeXTC2oa9KOOLuiTBl049CcHE/C47SQAAPAZ2wXfRzpEZPH1119/ysjIyN9MJ/66IE/XA+giPY1axb88VMB1GF/XCyQjAslcv5oCFfvka8lWQn2MsA75+3jkb40m4H/aTgQAAJ+xXextzuG3NfBzrSKyYPXq1b3f+c53zrzkkkv+qNo8vZ7apwsCde5dT97Tf+txvrWIv54RoNsI019TIdf3Wrx48ZSx0FBToSMDugNAP+rvSYb89WdcWu2fgwm4Moe8AACIBtuF3pb4d5rQu/l65v3niEjX7/3e7w3ddttty59//vlLLrroooly8dc7dR26TxbdqaCrgOuwfnrBXzXx12F73RmgH8u/l5gBXXugoa/R36OhxsKn4f4mTMAvRWR+jjkCABA8tou8DfFX4Vi4YsWKhebf9ZiAuTr3v2fPnsHjx4/vKJVKo1dfffX3yu/8VYgbGXpXgddT+vSAH90iqEf2Vlu8p6/V0Lv8xBjYPNu/SBPQ0dHx9RxzBAAgCmwXeCviv3Pnzr7NmzcPDA8P99RhAmaLSPfGjRv7XnzxxU3j4+Pb1AA89NBD14yOjk6qOJ1//vmlpUuXNrTiPi3+Ok2gc/s6baB3+C7u3bdlAi666KIPHnjggY+WSqVGpnAAAMBgu7gXLv6f/OQnB/bv37/s1ltvPf2yyy4bGhkZWVyDCdCfn93X1zf/iiuuGHz44YfPmpyc3K0GQOMP//AP/zo5iEfn4ZsV/0TsdGFf+pCgmCMxAZ/5zGe+Zdp9BBMAANA4tgu7FfE/fPjwOhWRH/zgB2fXYQL0jrP76quvHhwfH98yMTFxYWIA3njjjT2XXXbZEV3kp8P/9QzFVxN/DTUUOqrgwx7+ImLTpk1PHzt2bE/S7pgAAIDGsV3UrYl/EjWaAH2fOcuWLVt04403Ln3sscfWTU5O7kq/z8GDBz+2a9eu13VhXr3toHf55eKvoaMKutJfDcJMiwcjiKMisnZsbGxjut0xAQAAjWG7qFsV/zpMQIv5Wo9OAfzsZz/bMDk5eWIEIIn77rvv08PDw6/XK9a6gl/3+VfaTqjnCOj2P91B4MD1shX/IiI7dQGmBiYAAKB5bBf23MX/8ssv79+3b9/p1cS/RhOQnBvQfdFFFw288MIL51QyADoqcM8994wODQ0dqnUaQFfx6xC/7uWvdKBQsq4gYgOgJ/4NqflKDAAmAACgeWwX9zyYWrCnB/YsWLCg59prr12qh/YcP35853QGoAYT0NrT07NARwC++93vnpFsAyyPiYmJCw4cOLCuv7///501a9Yva2kH3TKo6wf0br/cAOgBP4ODgzHuBNAHLe0Xkfak/TEBAADZYbvI52kA9NCenvnz5/e98MILG44ePbq5SROg77to5cqV/U8++eT6Y8eOba72HpOTkztvv/32Feecc86GlpYW3bP+7nTtoFMGK1as+NCjfPWI3+3bt3/oQKDAQ03T10RkRYVriwkAAMgI28U+L5Ihe7177FHRzsgEqKlYrN+bmJiY9n30+7rVUHcNdHd3nyoi/0lE7hKRgyLyZvIoYQ09uleFvnwKQA2BHgikOwsCXQT4vnmq30Fztv8najjhDxMAAJABtgVAPDIBc40RmDoLQI8CTm8FrGYCdCTgpptuOlUPEFLzoFMTyfoEncvWxYnPPvvs+tdee+288p9/++23t7/yyivn7du3Tw1Ed52nFoYMJgAAoElCNgB5mACNBYsWLVp04MCBFY8++uia9IFA1UzAI488Mvztb3979aWXXrpERf/KK6+c+nj33XdPvceRI0d0a9tJ76PvOzExsUvXL5iFb/MKaC+fwAQAADRB6AYgDxPQpe+zatWqPr1zP3r06EgNJuDCV199dUSPEH7wwQfPUNH/p3/6p7X6N+gdfrWff+KJJ9auXbt2oLu7e6H5P+gDieB3YAIAABokBgOQhwmYGr7ftWvXkiNHjpyrJwPOZALMHf0Fun1QX2+Mge4kqPhzTz/99MYbbrjh1NTzCuaY/wecDCYAAKABYjEAWZuARcmWNDUB5uFAM5qAWkNHBe65554z9AwDs2ZAh/8R/+pgAgAA6iQmA5CZCTAL+nRR3uLEBIyNjZ1by3RALeJ///33r9Yjh43J0Lt/xH9mMAEAAHUQmwHIzASsX7++3wj0CRPw1FNPbdApgfLnBNQauhjwzjvvXJkSf51qQPxrBxMAAFAjMRqArE1AdzIdsHnz5oEf//jHwwcPHhzWhX86GjDDiMBu8/t264I/Ff5PfepTS8x7Iv6NgQkAAKiBWA1A1tMBi4xo9+rugHvvvXelnhNw/PjxbUePHj1/fHx8q44KmPfVj9vVGBw8eHD966+/vuWhhx46S1f7L126NLnrZ9i/OTABAAAzELMByNoELDSxWB8brKMDemDQww8/fJbu5detfz//+c836ee6XkANgs71f+5znztdjYM+ZyB1SBDD/s2DCQAAmIbYDUBmJmDTpk29qXMC5g0ODnbq+6kRWLJkSV8yRaB3+vpEQf18586dU19PHTesfwPinx2YAACAKmAA8jknoNO83xzz73nJNIG5009W93ca4W81gfhnDyYAAKACGIB8nx3QYmKWEaI281GNgZh/J78b8gMTAABQBgagmKcIpuE4XztgAgAAUmAA7JgAsAMmAADAgAGoDCYgXDABAAAYgGnBBIjoQUcfE5E/FpG/EpEnReQlEXlbRD5wIH8yi+Hh4dLo6OiJGBkZKbW1tVn/u4hp2+ADk4svmdz8loj8N5OzusMGAKbBdoGR0E2AbvszOwB0xf9scZ/zROR2EXlWRH7jQI4UFpiAoEJz9xkR+YqIbLLdqQBcxHYnlZBNgB7+Y/b5LzRrAVx9pK+eXXCTiBxxICesBiYg2HhORP6LWZcDAA50SgnVBJSJf2dqW6BL6PHFt4jIuAO54ExgAoKOY2aaYJHtzgdgG9udUUI0AR6Iv/4t14jIGw7kgJOBCQg+xkXks2zLhZix3QklNBPggfivFJH/7cC1dz4wAVHEP4rIctudEsAGtjtfnrTndOhOVROgD/pxXPw/alZN277u3gQmIIr4hYh8wnbnBCga2x0vL9qNEHcXZQLuuOOO5Q6Lv/4dtzlwvb0MTEA0uwa+5FCfBcgd250uT/Gfiuuvv76/VCqpWOdqAhwWf916eLcD19rrwAREE/eZfg0QPLY7W67iv3fv3qGJiYkdpVJppAATsMBB8de/7SEHrnMQgQmIJr6DCYAYsN3RihD/ZHV+niZgtol2h8Rf/457HLjGQQUmIJr4S4f6MkAu2O5kRYm/Rp4rfZNH/roEc/6YANv92/f4ku1ODJAntjtYCOLvIh934NoGHYwERLMw8HLbnRkgL2x3sGZB/Cvv8/93B65t8IEJiCL+jXMCIFRsd65mQPwrT0VwyA8mwHa/Di1+xHoACBHbHatREP/KfNqBaxpdMBIQRVzdRL0CcBLbnaoREP/K6KFHbzpwTaMMTEDw8bo55wMgGGx3qnpB/KtziwPXM+rABAQf+5qotQDOYbtD1QPiX515IvKWA9cz+sAEBP8o4flN1lwAZ7DdoWoF8Z+emxy4loRpA0xA0Lnwn5usuQDOYLsz1QLiPzPPOnAtiVQbYAKCzYfnmqy5AM5guzPNBOI/M+c5cB2JCm2ACQg2LzZkUHsBrGO7I00H4l8btztwHYkqbYAJCDI3/jyD2gtgHdsdqRqIf+0w/O94YAKCi6cyqL0A1rHdkSqB+NdOvzmv3PZ1JDABMeXAb8yzRwC8xnZHKgfxr4+POXANiRrbgJGAoHLl8oxqMIA1bHeiNIh//fyxA9eQqKMNMAHB5MsXM6rBANaw3YkSEP/G+JYD15Cosw0wAUHkzH3iOxE+Jx1OxnYnUhD/xjnswDUkGmgDTID3eXPIezEplUqjmICosd2JEP/meNmBa0g02AaYAK9z5yUJxABgAuLFdifqTWLv3r1DExMTO1I5SV7OzLgD15Boog0wAd7mz1viOxTb6LHdiRD/5njfgUJINNkGmAAvc+hX3qvH+Pj4NkxA1NjuRNz5+339oDFaRaQnPQI2Nja2sawWj5RKpTYamPzPjbVr1w5gAqLGqoAw7O/39csiASMGE9A85H9z+Se9mICosdaBOjo6Ssz5+3v9MACZgAkg/23m3W+HnzAB0WJN/Ldt09knFvz5eP0wAJmCCWgc8r+5fJPFmICosSb+o6M6zclqf9+uHwYgFzABjUH+N5dnMhsTEDXWxD9lADiMypPrhwHIFUxA/ZD/TeRX8g1MQLxYE39jABB/T64fBqAQMAH1Qf43kVfpF2AC4sSa+C9fvly/Bx5cPwxAoWACaof8byKfyl+ICYgPm+KPAfDg+mEArIAJqA3yv4k8qvQDmIC4sCn+GADHrx8GwCqYgJkh/5vIn2o/iAmIB5vijwFw+PphAJwAEzA95H/jeTMs04AJiAOb4o8BcPT6YQCcAhNQHfI/B/FPwASEj03xxwA4eP0wAE6CCagM+Z+T+CdgAsLGpvhjABy7fhgAp8EEfBjyP0fxT8AEhItN8ccAOHT9MABegAk4GfI/Z/FPwASEiU3xxwA4cv0wAF6BCfgd5L/kL/4JmIDwsCn+GAAHrh8GwEswAb8l9vxvLUr8EzABYWFT/F3oQL4TewGMGUxA3PnfWrT4J2ACwsGm+NvuQCEQcwEETECs+d9qS/wTMAFhYFP8ERBL1y+AAgi/I+aRgBjzv9W2+CdgAvzHpvgjIBauXwAFED5MrCYgtvxvdUX8EzABfmNT/BGQgq9fAAUQqhOjCYgp/1tdE/8ETIC/2BR/BKTA6xdAAYSZic0ExJL/ra6KfwImwE9sij8CUtD1C6AAQu3EZAJiyP9W18U/ARPgHzbFHwEp4PoFUAChfmIxAaHnf6sv4p+ACfALm+KPgOR8/QIogNA4MZiAkPO/1TfxT8AE+INN8UdAcrx+ARRAaJ7QTUCo+d/qq/gnYAL8wKb4IyA5Xb8ACiBkR8gmIMT8b/Vd/BMwAe5jU/wRkByuXwAFELInVBMQWv63hiL+CZgAt7Ep/ghIxtcvgAII+RGiCQgp/1tDE/8ETICbtFsWfwSkeUIqgJA/oZmAUPK/NVTxT8AEuCf+vZbFHwFpnlAKIBRHSCYghPxvDV38EzABbol/r2XxJ/xvA/CTUEyA7/nfGov4J2AC3BH/XsTfegHxPcBfQjABPud/a2zin4AJcED89+7dO8Sdv/UC4nuA3/huAnzN/9ZYxT8BE2BZ/CcmJnYw7G+9gPge4D8+mwAf8781dvFPwARYFH9NNOb8rRcQ3wPCwFcT4Fv+tyL+J4MJsCT+iQFgDt1WRQAADUZJREFUwZ/1IuJzQDj4aAJ8yv9WxL8ymAAL4q+B+FsvIL4HhIVvJsCX/G9F/KcHE1Cw+JdKpeUOdCDC7zaA8PDJBPiQ/62If21gAooVfxc6EOF3G0CY+GICXM//VsS/PjABxYm/Cx2I8LsNIFx8MAEu538r4t8YmIBixN+FDkT43QYQNq6bAFfzvxXxbw5MQP7i70IHIvxuAwgfl02Ai/nfivhnAyYgX/F3oQMRfrcBxIGrJsC1/G9F/LMFE5Cf+LvQgQi/2wDiwUUT4FL+tyL++YAJyEf8XehAhN9tAHHhmglwJf9bEf98wQRkL/4udCDC7zaA+HDJBLiQ/62IfzFgArIVf+V9BzoR4W8bQJy4YgJs538r4u+eCeiWcMlS/JW3HOhEhL9tAPHiggmwnf89PNXPLRNQj/jFLv7KIQc6EeFvG0Dc1GIC1uX4+23nf2/sj/R1xgQcO3bsFAmXthzEX/maA52I8LcNAKYzAXpj1pFjE9nO/17E3w0T0Cnh05Wx+CufdKATEf62AUBFE/DMM8+clbP4iwP538udv30TMLfg39kilrj55psXZyj+ygIRedeBjkT42QYAlUxAj/k87xpsNf/HGPaPhhZjNmYZw9Fmot18T79eCDq3lJH4J9xtuyMR3rYBQBoV/YU5iX+lGmwt94eHtQwz5x8Ds8zwe7IIr8s43B6T7ItMYnYWNTpgTEBWCx5Xi8gHDogJ4V8bANiswa4YgGHSIOxhLY3BVAyZSD7vM8PpPUWOBmTIbQ6ICeFfGwDYrMFW87/02xsxxD9QZhth7y8T/WqhrxkwDtU3E6CLdR633aEI79oAwGYNJv8ht8QbSAn7UJ3R56EJWCIirzjQqQh/2gDAZg0m/yGXIaf+BkS/PHwcCVgvIq860LEIP9oAwGYNJv8hU2aZswWWZGAA+swCQWvbBhtE/+5/dKBzEe63AYDNGkz+Q2aoUM8zK/uHMghNYH0uwXwPr5GuCfgTEfmlA52McLcNAGzWYPIfMnWeczK6+0+PArR5OBWQoHNvBzgsyHqhcTUAbNZg8h8yTb6+Bhf9VYtBMwrgqwFI0H23vy8id4rIQRF5k0cJWy8+LgSAzRpM/kNmzDV7TYcyjkXmAAuArKEAQkjD//XWYPIfMqMtJwPQY4a1ALKGAgghoXUSAwCF7DHtNR/Tybc4JwOg5gIgazAAEFoN1ikARgCgkAMmBsznLeYs/+6M1wAsMfPnjABAHmAAIMQajAGA3BNvqCwBW3NaBOjjWQDgBxgAiLkGk//QVOKlE7Dd7H/P0gD0pRK7JfVIy+TvUTAH0CgUQIi5BpP/0HTipROw26wDGMxo+H+BOQhojknuLnPQRZcZ7pqX2vuKEYB6oQBCzDWY/IdMEi89ZN+fwbMAkicD9pmEXmTeM/nakPl8iVkk2GWMgu/nBUCxUAAh1Bpcy+vJf8gs8crv3rMYAegrm9Oq5moT06HOFxMAtUIBhFBrcC1B/oOVxKvHBNQ6nTDo8aOEwQ4UQIi5BpP/kGviJUP5gzWKfX9G6wcwAVALFECIuQaT/5C76+w3T6dK7ubTiZh83m/m+pO5q8GMniTISABMBwUQYqzBGAAobMgpWc3fZu7MF5mFe4vNx27zvYUm+jP6nX3m97I7AKqBAYBYa7CeIkj+QyHzTQOpx/rONf+eY/aszjL7/GebJB3M8HcuKDsqEyANBRBirsHkPxS24C85raoSLSYhs7j7T0e3MRcAlaAAQsw1mPyHQlf7VzMBLWZYKstTBJOhL3W7AJWgAELMNZj8jxwbW/0qmYA2c7Jf1n9LrzktkGmAuNGpoKtE5OsickhE3hSRDxwogARtEHMOfGD6ovbJr4nIJ82hblAQvQWL/3QmYEFOv0tPCIQ4OVNE7haR9xwodgRtQA7IjG3wrojcJSJn2C4eMdBq8bCftAmYY4Q66zUAi83IAusA4kKv+VdEZBLRQXTIAW9HB24zC8UhcBOQ5xoAfYgQxMNqEXnOgQJG0AbkgDTdBgeNLkDAJqAtp10AC822F84CiINzzZwihZc2IAfCyYF/EZFzbBeX0LFtAuaZg4EGMxz+12kFhv/jufNH/O0Xa4I2KOXQBq8yEhC2CRg0op3F8wCS44XVVHD3Hz46T/g0hRfxJQeCzoHDbOsO2wQkowFZzP3zaOB4+IoDxYmgDcgByb0N/sR2sYkB2yag2eBpgHFt9WO1P+KL+MaRA79kKiAeE1D+9MCZ7vr1tYh/XHzDgaJE0AbkgBTWBn9hu+jEgm0TsMTM5S9JGYJKr+s3wbB/XCwwB4dQfGkDciCeHHiXEwPjMQELzWr+vtTcfiL6g+b8gIVGDHTLH8TDVQ4UI4I2IAek8Db4fdvFJyZsmoDkMJ9Ws6q/0xiC+alT/vQMAVb7x4ee7U/xpQ3Igfhy4E7bxSc2XDkxMDk+ONnfz11/vBxyoBARtAE5IIW3weO2i0+MuGACABLeQnwQH3Igyhx4gzJoB0wAuML7DhQigjYgB6TwNviV7eITM5gAcAEMAOKL+MaZA7+yXXxix5YJYJ8/JIw7UIgI2oAckMLbQKf/IDITgPhDmpcRH8SHHIgyB16iFMZlAhB/KOewA4WIoA3IASm8DXQHEERiAhB/qMRfIT6IDzkQZQ7cR0mMwwQg/lCNWxwoRARtQA5I4W3wRcpi+CYA8Yfp+Djig/iQA1HmwOWUxrBNAOIPM6HPg/iNA8WIoA3IASmsDf5DRHopj+GaAMQfauU5xAfxIQeiyoF/pjyGawIQf6iHrzpQkAjagByQ+tugra2tkXb7MiUyTBOA+EO9jCA+iA854F8ODA8Pl0ZGRhoxAedQJsMzAYWJf6lUGi6VSsuL+F1QCEwDOFDQCdpA6hD/0dHRqajTBGhfh8BMQNHiP2oCExAGf4T4ID7kgJ8GYLQ+E/BZ28UmJNpFpNOyCShM/Hft2rVofHx8W8oAYALCYIGIvG27qBG0ATkgeZqAYyIy33axCUn8e03YMgFFzvl36f917dq1A5iAIPlTii8CTA4EbQL+q+0iE6L49+7du3doYmLitIJNQJHir79zcfL/xQQESY+5Q7Be1AjagByQrE3Aa2akD3IQ/x0FD4e3Fij+CbMxAcHzGQov4utzDvT29lr/Gxw1AVfZLi6hi38S3RIumICwUVP5uO1iRtAGzYjg8uXLo8yh4eom4Ici0mK7uMQg/jGsiscEhM0qEfmF7WJG0AbNiF9fX1+UOTRc1g5btmz5xYoVK86wXVR8B/E/GUxA2HzCdiEjaINGRU8/jzl/hn/XHr/5sz/7s/+nVCqNlEqlNttFxVcQ/8pgAsLmv9suZARtgPhLwybguuuuuy81Oo0JaADEf3owAWGvB3gAEUaEXc0B7vxluvZ54Pnnn99YNkWNCagDxL82MAFh94Ef2C70BG2A+Es9/eB7Zqt479jYGCagwcLHgr/awQSEyxwR+WtEGBF2JQe485fp2uebItKf1i9MQH0g/o2BCQgXPXfif9gu/ARtgPhLtX7wGxG51Wz3azUHe2EC6gTxbw5MQNhcLSLvIMQIMXf+TuXAv4vIx8v6KiagThD/bMAEhM1ZIvJ/HCh6RERtwJ2/VGsbPeTn9Cp9FRNQI4h/tmACwkaHGa8RkbdsCwMRfhsg/lKpXY6aPjjTCX+YgBlA/PMBExA+Ose4n5MD7YtkqIH4S3mbvGme6qdPZ60VTEAVEP98wQTEgT7/Yp+IjNkWDCKcNkD8Jd0ePxGRz4rIvAb7KCagDMS/GDAB8aDDkdtF5A4Red62gBD+tgHiL/8hIk+JyJdF5JyM+icmwID4FwsmIE5OEZG9IvKn5lTBp0XkZyLytoj82rbIEG62QUTi/76IjIvIT0XkCRH5SxH5oohcbh69ngfRmwDE3w6YAACoV4yGabLMidYEIP52wQQAgIL42yU6E4D4uwEmACBuEH83iMYEIP5ugQkAiBPE3y1aQzcBiL+bYAIA4gLxd5PWUE0A4u82mACAOED83aY1NBOA+PsBJgAgbBB/P2gNxQQg/n6BCQAIE8TfL1p9NwGIv59gAgDCAvH3k1ZfTQDi7zeYAIAwQPz9ptU3E4D4hwEmAMBvEP8waPXFBCD+YYEJAPATxD8sWl03AYh/mGACAPwC8Q+TVldNAOIfNpgAAD9A/MOm1TUTgPjHASYAwG0Q/zhodcUEIP5xgQkAcBPEPy5abZsAxD9OMAEAboH4x0mrLROA+McNJgDADRD/uGkt2gQg/qBgAgDsgvhDoSYA8Yc0mAAAOyD+UKgJQPyhEpgAgGJB/KFQE4D4w3RgAgCKAfGHQk0A4g+1gAkAyBfEHwo1AYg/1AMmACAfEH8o1AQg/tAImACAbEH8ITcTUOkHEX9oBkwAQDYg/pBr/pT/AOIPWYAJAGgOxB9yz6P0CxF/yBJMAEBjIP5QSD4lL0D8IQ8wAQD1gfhDYXml30D8IU8wAQC1gfhDofkl6U/27t07NDExsaNspeDyXP8kiAFMAMD0IP5gI88QfygETABA41u2hmk8kGw4kW//P80Yd59DmLHFAAAAAElFTkSuQmCC;" vertex="1" parent="1">
          <mxGeometry x="670" y="371" width="72" height="72" as="geometry" />
        </mxCell>
        <mxCell id="mIVXYmdaby6aAC75n7bV-55" value="BI &amp;amp; Reporting" style="rounded=0;whiteSpace=wrap;html=1;fillColor=none;strokeColor=none;" vertex="1" parent="1">
          <mxGeometry x="650" y="321" width="90" height="29" as="geometry" />
        </mxCell>
        <mxCell id="mIVXYmdaby6aAC75n7bV-56" value="AD-Hoc&amp;nbsp;&lt;div&gt;SQL Queries&lt;/div&gt;" style="rounded=0;whiteSpace=wrap;html=1;fillColor=none;strokeColor=none;" vertex="1" parent="1">
          <mxGeometry x="665" y="443" width="80" height="29" as="geometry" />
        </mxCell>
        <mxCell id="mIVXYmdaby6aAC75n7bV-57" value="Machine Learning" style="rounded=0;whiteSpace=wrap;html=1;fillColor=none;strokeColor=none;" vertex="1" parent="1">
          <mxGeometry x="660" y="560.63" width="80" height="29" as="geometry" />
        </mxCell>
        <mxCell id="mIVXYmdaby6aAC75n7bV-58" value="&lt;font style=&quot;font-size: 24px;&quot;&gt;High Level Architecture&lt;/font&gt;" style="rounded=0;whiteSpace=wrap;html=1;strokeColor=none;" vertex="1" parent="1">
          <mxGeometry x="60" y="97.47" width="315.25" height="30" as="geometry" />
        </mxCell>
        <mxCell id="mIVXYmdaby6aAC75n7bV-59" value="" style="image;aspect=fixed;perimeter=ellipsePerimeter;html=1;align=center;shadow=0;dashed=0;spacingTop=3;image=img/lib/active_directory/sql_server.svg;" vertex="1" parent="1">
          <mxGeometry x="10" y="80" width="50" height="64.94" as="geometry" />
        </mxCell>
      </root>
    </mxGraphModel>
  </diagram>
</mxfile>
